<svg xmlns="http://www.w3.org/2000/svg" width="500" height="500" viewBox="0 0 500 500" version="1.1"><path d="M 229.500 51.024 C 168.868 57.886, 115.574 90.519, 82.323 141.146 C 65.403 166.906, 54.383 198.264, 50.920 230.500 C 49.772 241.191, 50.271 272.011, 51.628 274.207 C 51.965 274.752, 53.007 272.934, 53.943 270.168 C 60.712 250.173, 86.634 243.243, 102.480 257.192 C 105.006 259.415, 107.871 262.792, 108.849 264.696 L 110.625 268.160 110.192 253.770 C 108.541 198.878, 138.312 149.221, 187.515 124.796 C 209.779 113.744, 231.543 109.165, 256.500 110.282 L 268.500 110.819 264.867 108.946 C 259.716 106.289, 253.395 98.705, 251.448 92.845 C 249.304 86.389, 249.824 75.067, 252.521 69.500 C 256.298 61.701, 267.654 53.058, 274.239 52.970 C 276.276 52.942, 276.324 52.837, 274.725 51.906 C 272.353 50.525, 239.564 49.886, 229.500 51.024 M 238.390 220.427 C 238.088 221.212, 237.990 222.900, 238.171 224.177 L 238.500 226.500 252 227 L 265.500 227.500 265.500 232 L 265.500 236.500 252 237 L 238.500 237.500 238.500 250 L 238.500 262.500 242 262.500 L 245.500 262.500 245.789 253.750 L 246.078 245 256.089 245 C 270.727 245, 274 242.607, 274 231.903 C 274 225.902, 271.820 221.262, 268.387 219.957 C 267.003 219.431, 259.810 219, 252.404 219 C 241.661 219, 238.826 219.289, 238.390 220.427 M 287.200 220.200 C 286.344 221.056, 286 227.356, 286 242.200 L 286 263 289.476 263 L 292.953 263 293.226 245.805 L 293.500 228.611 298.378 241.055 C 304.861 257.594, 305.139 258, 310 258 C 314.861 258, 315.139 257.594, 321.622 241.055 L 326.500 228.611 326.774 245.805 L 327.047 263 330.524 263 L 334 263 334 242.200 C 334 227.356, 333.656 221.056, 332.800 220.200 C 331.129 218.529, 323.509 218.682, 322.071 220.415 C 321.425 221.193, 318.509 227.778, 315.591 235.049 C 312.672 242.321, 310.036 247.867, 309.731 247.374 C 309.427 246.882, 306.846 240.635, 303.997 233.491 C 301.147 226.348, 298.294 220.172, 297.658 219.767 C 295.803 218.587, 288.511 218.889, 287.200 220.200 M 208 239.500 L 208 242 217.500 242 L 227 242 227 239.500 L 227 237 217.500 237 L 208 237 208 239.500 M 64 273 C 64 274.556, 64.667 275, 67 275 L 70 275 70 282 L 70 289 72.500 289 L 75 289 75 282 L 75 275 78 275 C 80.333 275, 81 274.556, 81 273 C 81 271.157, 80.333 271, 72.500 271 C 64.667 271, 64 271.157, 64 273 M 84 280 L 84 289 86.500 289 C 88.690 289, 89 288.567, 89 285.500 C 89 283.039, 89.450 282, 90.516 282 C 91.350 282, 92.783 283.575, 93.701 285.500 C 95.029 288.285, 95.950 289, 98.206 289 L 101.041 289 99.120 285.236 L 97.200 281.471 99.100 279.125 C 101.487 276.177, 101.475 275.475, 99 273 C 97.410 271.410, 95.667 271, 90.500 271 L 84 271 84 280 M 89 276.500 C 89 278.466, 89.508 279, 91.378 279 C 94.458 279, 96.407 276.807, 94.776 275.176 C 94.129 274.529, 92.565 274, 91.300 274 C 89.513 274, 89 274.558, 89 276.500" stroke="none" fill="#d9d9d9" fill-rule="evenodd"/><path d="M 277.762 52.707 C 279.006 52.946, 280.806 52.937, 281.762 52.687 C 282.718 52.437, 281.700 52.241, 279.500 52.252 C 277.300 52.263, 276.518 52.468, 277.762 52.707 M 196.232 223 C 196.232 224.925, 196.438 225.713, 196.689 224.750 C 196.941 223.787, 196.941 222.213, 196.689 221.250 C 196.438 220.287, 196.232 221.075, 196.232 223 M 195.975 257.796 L 196.458 262.500 196.797 258.618 C 196.984 256.483, 196.767 254.367, 196.315 253.915 C 195.863 253.463, 195.710 255.210, 195.975 257.796 M 61.437 258.250 L 58.500 261.500 61.750 258.563 C 63.538 256.948, 65 255.485, 65 255.313 C 65 254.540, 64.175 255.221, 61.437 258.250 M 103.500 259 C 105.648 261.200, 107.631 263, 107.906 263 C 108.181 263, 106.648 261.200, 104.500 259 C 102.352 256.800, 100.369 255, 100.094 255 C 99.819 255, 101.352 256.800, 103.500 259 M 89 276.500 C 89 278.594, 89.447 278.978, 91.750 278.864 C 94.108 278.747, 94.179 278.666, 92.250 278.294 C 91.013 278.056, 90 277.248, 90 276.500 C 90 275.752, 91.013 274.944, 92.250 274.706 C 94.179 274.334, 94.108 274.253, 91.750 274.136 C 89.447 274.022, 89 274.406, 89 276.500 M 52.272 279 C 52.272 281.475, 52.467 282.488, 52.706 281.250 C 52.944 280.012, 52.944 277.988, 52.706 276.750 C 52.467 275.512, 52.272 276.525, 52.272 279 M 69.336 282 C 69.336 286.125, 69.513 287.813, 69.728 285.750 C 69.944 283.688, 69.944 280.313, 69.728 278.250 C 69.513 276.188, 69.336 277.875, 69.336 282 M 89.252 285.500 C 89.263 287.700, 89.468 288.482, 89.707 287.238 C 89.946 285.994, 89.937 284.194, 89.687 283.238 C 89.437 282.282, 89.241 283.300, 89.252 285.500 M 147 345.313 C 147 345.485, 148.463 346.948, 150.250 348.563 L 153.500 351.500 150.563 348.250 C 147.825 345.221, 147 344.540, 147 345.313 M 108.500 392 C 111.766 395.300, 114.662 398, 114.937 398 C 115.212 398, 112.766 395.300, 109.500 392 C 106.234 388.700, 103.338 386, 103.063 386 C 102.788 386, 105.234 388.700, 108.500 392" stroke="none" fill="#ddc4c7" fill-rule="evenodd"/><path d="M 229.500 51.024 C 168.868 57.886, 115.574 90.519, 82.323 141.146 C 65.403 166.906, 54.383 198.264, 50.920 230.500 C 49.772 241.191, 50.271 272.011, 51.628 274.207 C 51.965 274.752, 53.007 272.934, 53.943 270.168 C 60.712 250.173, 86.634 243.243, 102.480 257.192 C 105.006 259.415, 107.871 262.792, 108.849 264.696 L 110.625 268.160 110.192 253.770 C 108.541 198.878, 138.312 149.221, 187.515 124.796 C 209.779 113.744, 231.543 109.165, 256.500 110.282 L 268.500 110.819 264.867 108.946 C 259.716 106.289, 253.395 98.705, 251.448 92.845 C 249.304 86.389, 249.824 75.067, 252.521 69.500 C 256.298 61.701, 267.654 53.058, 274.239 52.970 C 276.276 52.942, 276.324 52.837, 274.725 51.906 C 272.353 50.525, 239.564 49.886, 229.500 51.024 M 238.390 220.427 C 238.088 221.212, 237.990 222.900, 238.171 224.177 L 238.500 226.500 252 227 L 265.500 227.500 265.500 232 L 265.500 236.500 252 237 L 238.500 237.500 238.500 250 L 238.500 262.500 242 262.500 L 245.500 262.500 245.789 253.750 L 246.078 245 256.089 245 C 270.727 245, 274 242.607, 274 231.903 C 274 225.902, 271.820 221.262, 268.387 219.957 C 267.003 219.431, 259.810 219, 252.404 219 C 241.661 219, 238.826 219.289, 238.390 220.427 M 287.200 220.200 C 286.344 221.056, 286 227.356, 286 242.200 L 286 263 289.476 263 L 292.953 263 293.226 245.805 L 293.500 228.611 298.378 241.055 C 304.861 257.594, 305.139 258, 310 258 C 314.861 258, 315.139 257.594, 321.622 241.055 L 326.500 228.611 326.774 245.805 L 327.047 263 330.524 263 L 334 263 334 242.200 C 334 227.356, 333.656 221.056, 332.800 220.200 C 331.129 218.529, 323.509 218.682, 322.071 220.415 C 321.425 221.193, 318.509 227.778, 315.591 235.049 C 312.672 242.321, 310.036 247.867, 309.731 247.374 C 309.427 246.882, 306.846 240.635, 303.997 233.491 C 301.147 226.348, 298.294 220.172, 297.658 219.767 C 295.803 218.587, 288.511 218.889, 287.200 220.200 M 208 239.500 L 208 242 217.500 242 L 227 242 227 239.500 L 227 237 217.500 237 L 208 237 208 239.500 M 64 273 C 64 274.556, 64.667 275, 67 275 L 70 275 70 282 L 70 289 72.500 289 L 75 289 75 282 L 75 275 78 275 C 80.333 275, 81 274.556, 81 273 C 81 271.157, 80.333 271, 72.500 271 C 64.667 271, 64 271.157, 64 273 M 84 280 L 84 289 86.500 289 C 88.690 289, 89 288.567, 89 285.500 C 89 283.039, 89.450 282, 90.516 282 C 91.350 282, 92.783 283.575, 93.701 285.500 C 95.029 288.285, 95.950 289, 98.206 289 L 101.041 289 99.120 285.236 L 97.200 281.471 99.100 279.125 C 101.487 276.177, 101.475 275.475, 99 273 C 97.410 271.410, 95.667 271, 90.500 271 L 84 271 84 280 M 89 276.500 C 89 278.466, 89.508 279, 91.378 279 C 94.458 279, 96.407 276.807, 94.776 275.176 C 94.129 274.529, 92.565 274, 91.300 274 C 89.513 274, 89 274.558, 89 276.500" stroke="none" fill="#d9d9d9" fill-rule="evenodd"/><path d="M 229.500 51.024 C 168.868 57.886, 115.574 90.519, 82.323 141.146 C 65.403 166.906, 54.383 198.264, 50.920 230.500 C 49.772 241.191, 50.271 272.011, 51.628 274.207 C 51.965 274.752, 53.007 272.934, 53.943 270.168 C 60.712 250.173, 86.634 243.243, 102.480 257.192 C 105.006 259.415, 107.871 262.792, 108.849 264.696 L 110.625 268.160 110.192 253.770 C 108.541 198.878, 138.312 149.221, 187.515 124.796 C 209.779 113.744, 231.543 109.165, 256.500 110.282 L 268.500 110.819 264.867 108.946 C 259.716 106.289, 253.395 98.705, 251.448 92.845 C 249.304 86.389, 249.824 75.067, 252.521 69.500 C 256.298 61.701, 267.654 53.058, 274.239 52.970 C 276.276 52.942, 276.324 52.837, 274.725 51.906 C 272.353 50.525, 239.564 49.886, 229.500 51.024 M 238.390 220.427 C 238.088 221.212, 237.990 222.900, 238.171 224.177 L 238.500 226.500 252 227 L 265.500 227.500 265.500 232 L 265.500 236.500 252 237 L 238.500 237.500 238.500 250 L 238.500 262.500 242 262.500 L 245.500 262.500 245.789 253.750 L 246.078 245 256.089 245 C 270.727 245, 274 242.607, 274 231.903 C 274 225.902, 271.820 221.262, 268.387 219.957 C 267.003 219.431, 259.810 219, 252.404 219 C 241.661 219, 238.826 219.289, 238.390 220.427 M 287.200 220.200 C 286.344 221.056, 286 227.356, 286 242.200 L 286 263 289.476 263 L 292.953 263 293.226 245.805 L 293.500 228.611 298.378 241.055 C 304.861 257.594, 305.139 258, 310 258 C 314.861 258, 315.139 257.594, 321.622 241.055 L 326.500 228.611 326.774 245.805 L 327.047 263 330.524 263 L 334 263 334 242.200 C 334 227.356, 333.656 221.056, 332.800 220.200 C 331.129 218.529, 323.509 218.682, 322.071 220.415 C 321.425 221.193, 318.509 227.778, 315.591 235.049 C 312.672 242.321, 310.036 247.867, 309.731 247.374 C 309.427 246.882, 306.846 240.635, 303.997 233.491 C 301.147 226.348, 298.294 220.172, 297.658 219.767 C 295.803 218.587, 288.511 218.889, 287.200 220.200 M 208 239.500 L 208 242 217.500 242 L 227 242 227 239.500 L 227 237 217.500 237 L 208 237 208 239.500 M 64 273 C 64 274.556, 64.667 275, 67 275 L 70 275 70 282 L 70 289 72.500 289 L 75 289 75 282 L 75 275 78 275 C 80.333 275, 81 274.556, 81 273 C 81 271.157, 80.333 271, 72.500 271 C 64.667 271, 64 271.157, 64 273 M 84 280 L 84 289 86.500 289 C 88.690 289, 89 288.567, 89 285.500 C 89 283.039, 89.450 282, 90.516 282 C 91.350 282, 92.783 283.575, 93.701 285.500 C 95.029 288.285, 95.950 289, 98.206 289 L 101.041 289 99.120 285.236 L 97.200 281.471 99.100 279.125 C 101.487 276.177, 101.475 275.475, 99 273 C 97.410 271.410, 95.667 271, 90.500 271 L 84 271 84 280 M 89 276.500 C 89 278.466, 89.508 279, 91.378 279 C 94.458 279, 96.407 276.807, 94.776 275.176 C 94.129 274.529, 92.565 274, 91.300 274 C 89.513 274, 89 274.558, 89 276.500" stroke="none" fill="#d9d9d9" fill-rule="evenodd"/><path d="M 382 100.313 C 382 100.485, 383.462 101.948, 385.250 103.563 L 388.500 106.500 385.563 103.250 C 382.825 100.221, 382 99.540, 382 100.313 M 348.500 151 C 351.766 154.300, 354.662 157, 354.937 157 C 355.212 157, 352.766 154.300, 349.500 151 C 346.234 147.700, 343.338 145, 343.063 145 C 342.788 145, 345.234 147.700, 348.500 151 M 168.750 226.740 C 172.188 226.936, 177.813 226.936, 181.250 226.740 C 184.688 226.545, 181.875 226.385, 175 226.385 C 168.125 226.385, 165.313 226.545, 168.750 226.740 M 449.252 243.500 C 449.263 245.700, 449.468 246.482, 449.707 245.238 C 449.946 243.994, 449.937 242.194, 449.687 241.238 C 449.437 240.282, 449.241 241.300, 449.252 243.500 M 170.384 245.442 C 170.080 246.234, 170.042 247.697, 170.299 248.692 C 170.609 249.888, 170.807 249.580, 170.884 247.781 L 171 245.062 183.250 244.747 L 195.500 244.432 183.219 244.216 C 173.302 244.042, 170.831 244.278, 170.384 245.442 M 179.287 253.740 C 182.469 253.939, 187.419 253.937, 190.287 253.736 C 193.154 253.535, 190.550 253.372, 184.500 253.374 C 178.450 253.376, 176.104 253.541, 179.287 253.740 M 449.252 260.500 C 449.263 262.700, 449.468 263.482, 449.707 262.238 C 449.946 260.994, 449.937 259.194, 449.687 258.238 C 449.437 257.282, 449.241 258.300, 449.252 260.500 M 67.250 270.735 C 69.862 270.941, 74.138 270.941, 76.750 270.735 C 79.362 270.529, 77.225 270.360, 72 270.360 C 66.775 270.360, 64.638 270.529, 67.250 270.735 M 83.425 271.334 C 83.144 272.067, 83.067 276.455, 83.253 281.084 L 83.593 289.500 83.796 280.296 L 84 271.091 90.750 270.742 L 97.500 270.392 90.719 270.196 C 85.845 270.055, 83.793 270.375, 83.425 271.334 M 64.250 275.689 C 65.213 275.941, 66.787 275.941, 67.750 275.689 C 68.713 275.438, 67.925 275.232, 66 275.232 C 64.075 275.232, 63.288 275.438, 64.250 275.689 M 76.250 275.689 C 77.213 275.941, 78.787 275.941, 79.750 275.689 C 80.713 275.438, 79.925 275.232, 78 275.232 C 76.075 275.232, 75.287 275.438, 76.250 275.689 M 348.462 349.250 L 343.500 354.500 348.750 349.538 C 351.637 346.808, 354 344.446, 354 344.288 C 354 343.541, 353.074 344.372, 348.462 349.250 M 396.437 385.250 L 393.500 388.500 396.750 385.563 C 399.779 382.825, 400.460 382, 399.687 382 C 399.515 382, 398.052 383.462, 396.437 385.250 M 384.946 396.750 L 381.500 400.500 385.250 397.054 C 387.313 395.158, 389 393.471, 389 393.304 C 389 392.540, 388.154 393.260, 384.946 396.750 M 238.264 449.718 C 239.784 449.947, 242.034 449.941, 243.264 449.704 C 244.494 449.467, 243.250 449.279, 240.500 449.286 C 237.750 449.294, 236.744 449.488, 238.264 449.718" stroke="none" fill="#ff4b5f" fill-rule="evenodd"/><path d="M 271.173 54.484 C 262.838 57.085, 255.795 63.531, 252.306 71.750 C 249.950 77.302, 250.127 88.425, 252.661 94.051 C 255.116 99.500, 259.915 105.166, 264.448 107.968 C 266.267 109.092, 273.194 111.357, 279.842 113.001 C 300.280 118.056, 316.851 125.475, 332 136.354 C 350.616 149.723, 365.116 167.073, 375.553 188.469 C 386.532 210.974, 390.659 230.700, 389.684 256 C 389.377 263.975, 388.390 273.875, 387.491 278 C 375.277 334.031, 333.318 375.685, 277 387.688 C 263.608 390.543, 233.940 390.267, 220 387.159 C 192.900 381.116, 170.133 368.422, 149.959 348.108 C 131.314 329.333, 118.709 306.057, 112.892 279.662 C 111.821 274.801, 109.861 268.685, 108.536 266.072 C 101.480 252.147, 83.867 246.466, 69.640 253.525 C 60.551 258.034, 54.286 266.827, 53.291 276.470 C 52.061 288.390, 60.526 316.861, 72.179 340 C 91.874 379.106, 120.750 407.972, 160 427.794 C 185.671 440.758, 208.804 447.076, 237.866 449.060 C 279.746 451.921, 323.459 440.337, 359 416.962 C 425.771 373.046, 460.047 294.480, 446.470 216.470 C 438.023 167.938, 412.645 124.875, 374.236 93.901 C 351.064 75.214, 320.515 60.919, 290.066 54.514 C 281.418 52.695, 276.929 52.688, 271.173 54.484 M 163.691 219.642 C 163.311 220.022, 163 221.608, 163 223.167 L 163 226 175 226.205 C 181.600 226.317, 188.912 226.430, 191.250 226.455 L 195.500 226.500 195.500 223 L 195.500 219.500 179.941 219.226 C 171.384 219.075, 164.071 219.262, 163.691 219.642 M 164.678 238.803 C 162.681 241.010, 162.480 249.695, 164.306 254.906 C 166.545 261.295, 169.476 262.464, 183.301 262.483 L 195.500 262.500 195.807 258.250 L 196.115 254 185.057 254 C 175.225 254, 173.772 253.772, 171.939 251.939 C 170.636 250.636, 169.993 248.890, 170.189 247.189 L 170.500 244.500 183.311 244.220 L 196.122 243.939 195.811 240.720 L 195.500 237.500 180.928 237.224 C 167.801 236.976, 166.190 237.132, 164.678 238.803 M 63 273 C 63 275.667, 63.333 276, 66 276 L 69 276 69 282.500 L 69 289 72 289 L 75 289 75 282.500 L 75 276 78 276 C 80.667 276, 81 275.667, 81 273 L 81 270 72 270 L 63 270 63 273 M 83.667 270.667 C 83.300 271.033, 83 275.308, 83 280.167 L 83 289 86.500 289 C 89.722 289, 90 288.762, 90 286 C 90 284.350, 90.395 283, 90.879 283 C 91.362 283, 92.317 284.350, 93 286 C 94.080 288.608, 94.752 289, 98.142 289 L 102.041 289 100.132 285.250 C 98.510 282.063, 98.432 281.306, 99.612 280.211 C 101.796 278.182, 101.329 273.344, 98.777 271.557 C 96.532 269.984, 85.027 269.306, 83.667 270.667 M 90 276.500 C 90 277.628, 90.702 278.039, 92.250 277.820 C 93.487 277.644, 94.500 277.050, 94.500 276.500 C 94.500 275.950, 93.487 275.356, 92.250 275.180 C 90.702 274.961, 90 275.372, 90 276.500" stroke="none" fill="#ff142e" fill-rule="evenodd"/><path d="M 229.500 51.024 C 168.868 57.886, 115.574 90.519, 82.323 141.146 C 65.403 166.906, 54.383 198.264, 50.920 230.500 C 49.772 241.191, 50.271 272.011, 51.628 274.207 C 51.965 274.752, 53.007 272.934, 53.943 270.168 C 60.712 250.173, 86.634 243.243, 102.480 257.192 C 105.006 259.415, 107.871 262.792, 108.849 264.696 L 110.625 268.160 110.192 253.770 C 108.541 198.878, 138.312 149.221, 187.515 124.796 C 209.779 113.744, 231.543 109.165, 256.500 110.282 L 268.500 110.819 264.867 108.946 C 259.716 106.289, 253.395 98.705, 251.448 92.845 C 249.304 86.389, 249.824 75.067, 252.521 69.500 C 256.298 61.701, 267.654 53.058, 274.239 52.970 C 276.276 52.942, 276.324 52.837, 274.725 51.906 C 272.353 50.525, 239.564 49.886, 229.500 51.024 M 238.390 220.427 C 238.088 221.212, 237.990 222.900, 238.171 224.177 L 238.500 226.500 252 227 L 265.500 227.500 265.500 232 L 265.500 236.500 252 237 L 238.500 237.500 238.500 250 L 238.500 262.500 242 262.500 L 245.500 262.500 245.789 253.750 L 246.078 245 256.089 245 C 270.727 245, 274 242.607, 274 231.903 C 274 225.902, 271.820 221.262, 268.387 219.957 C 267.003 219.431, 259.810 219, 252.404 219 C 241.661 219, 238.826 219.289, 238.390 220.427 M 287.200 220.200 C 286.344 221.056, 286 227.356, 286 242.200 L 286 263 289.476 263 L 292.953 263 293.226 245.805 L 293.500 228.611 298.378 241.055 C 304.861 257.594, 305.139 258, 310 258 C 314.861 258, 315.139 257.594, 321.622 241.055 L 326.500 228.611 326.774 245.805 L 327.047 263 330.524 263 L 334 263 334 242.200 C 334 227.356, 333.656 221.056, 332.800 220.200 C 331.129 218.529, 323.509 218.682, 322.071 220.415 C 321.425 221.193, 318.509 227.778, 315.591 235.049 C 312.672 242.321, 310.036 247.867, 309.731 247.374 C 309.427 246.882, 306.846 240.635, 303.997 233.491 C 301.147 226.348, 298.294 220.172, 297.658 219.767 C 295.803 218.587, 288.511 218.889, 287.200 220.200 M 208 239.500 L 208 242 217.500 242 L 227 242 227 239.500 L 227 237 217.500 237 L 208 237 208 239.500 M 64 273 C 64 274.556, 64.667 275, 67 275 L 70 275 70 282 L 70 289 72.500 289 L 75 289 75 282 L 75 275 78 275 C 80.333 275, 81 274.556, 81 273 C 81 271.157, 80.333 271, 72.500 271 C 64.667 271, 64 271.157, 64 273 M 84 280 L 84 289 86.500 289 C 88.690 289, 89 288.567, 89 285.500 C 89 283.039, 89.450 282, 90.516 282 C 91.350 282, 92.783 283.575, 93.701 285.500 C 95.029 288.285, 95.950 289, 98.206 289 L 101.041 289 99.120 285.236 L 97.200 281.471 99.100 279.125 C 101.487 276.177, 101.475 275.475, 99 273 C 97.410 271.410, 95.667 271, 90.500 271 L 84 271 84 280 M 89 276.500 C 89 278.466, 89.508 279, 91.378 279 C 94.458 279, 96.407 276.807, 94.776 275.176 C 94.129 274.529, 92.565 274, 91.300 274 C 89.513 274, 89 274.558, 89 276.500" stroke="none" fill="#d9d9d9" fill-rule="evenodd"/><path d="M 229.500 51.024 C 168.868 57.886, 115.574 90.519, 82.323 141.146 C 65.403 166.906, 54.383 198.264, 50.920 230.500 C 49.772 241.191, 50.271 272.011, 51.628 274.207 C 51.965 274.752, 53.007 272.934, 53.943 270.168 C 60.712 250.173, 86.634 243.243, 102.480 257.192 C 105.006 259.415, 107.871 262.792, 108.849 264.696 L 110.625 268.160 110.192 253.770 C 108.541 198.878, 138.312 149.221, 187.515 124.796 C 209.779 113.744, 231.543 109.165, 256.500 110.282 L 268.500 110.819 264.867 108.946 C 259.716 106.289, 253.395 98.705, 251.448 92.845 C 249.304 86.389, 249.824 75.067, 252.521 69.500 C 256.298 61.701, 267.654 53.058, 274.239 52.970 C 276.276 52.942, 276.324 52.837, 274.725 51.906 C 272.353 50.525, 239.564 49.886, 229.500 51.024 M 238.390 220.427 C 238.088 221.212, 237.990 222.900, 238.171 224.177 L 238.500 226.500 252 227 L 265.500 227.500 265.500 232 L 265.500 236.500 252 237 L 238.500 237.500 238.500 250 L 238.500 262.500 242 262.500 L 245.500 262.500 245.789 253.750 L 246.078 245 256.089 245 C 270.727 245, 274 242.607, 274 231.903 C 274 225.902, 271.820 221.262, 268.387 219.957 C 267.003 219.431, 259.810 219, 252.404 219 C 241.661 219, 238.826 219.289, 238.390 220.427 M 287.200 220.200 C 286.344 221.056, 286 227.356, 286 242.200 L 286 263 289.476 263 L 292.953 263 293.226 245.805 L 293.500 228.611 298.378 241.055 C 304.861 257.594, 305.139 258, 310 258 C 314.861 258, 315.139 257.594, 321.622 241.055 L 326.500 228.611 326.774 245.805 L 327.047 263 330.524 263 L 334 263 334 242.200 C 334 227.356, 333.656 221.056, 332.800 220.200 C 331.129 218.529, 323.509 218.682, 322.071 220.415 C 321.425 221.193, 318.509 227.778, 315.591 235.049 C 312.672 242.321, 310.036 247.867, 309.731 247.374 C 309.427 246.882, 306.846 240.635, 303.997 233.491 C 301.147 226.348, 298.294 220.172, 297.658 219.767 C 295.803 218.587, 288.511 218.889, 287.200 220.200 M 208 239.500 L 208 242 217.500 242 L 227 242 227 239.500 L 227 237 217.500 237 L 208 237 208 239.500 M 64 273 C 64 274.556, 64.667 275, 67 275 L 70 275 70 282 L 70 289 72.500 289 L 75 289 75 282 L 75 275 78 275 C 80.333 275, 81 274.556, 81 273 C 81 271.157, 80.333 271, 72.500 271 C 64.667 271, 64 271.157, 64 273 M 84 280 L 84 289 86.500 289 C 88.690 289, 89 288.567, 89 285.500 C 89 283.039, 89.450 282, 90.516 282 C 91.350 282, 92.783 283.575, 93.701 285.500 C 95.029 288.285, 95.950 289, 98.206 289 L 101.041 289 99.120 285.236 L 97.200 281.471 99.100 279.125 C 101.487 276.177, 101.475 275.475, 99 273 C 97.410 271.410, 95.667 271, 90.500 271 L 84 271 84 280 M 89 276.500 C 89 278.466, 89.508 279, 91.378 279 C 94.458 279, 96.407 276.807, 94.776 275.176 C 94.129 274.529, 92.565 274, 91.300 274 C 89.513 274, 89 274.558, 89 276.500" stroke="none" fill="#d9d9d9" fill-rule="evenodd"/><path d="" stroke="none" fill="#fb142c" fill-rule="evenodd"/><path d="M 0 250.002 L 0 500.004 250.250 499.752 L 500.500 499.500 500.752 249.750 L 501.004 0 250.502 0 L 0 0 0 250.002 M 0.492 250.500 C 0.492 388, 0.608 444.101, 0.750 375.170 C 0.892 306.238, 0.892 193.738, 0.750 125.170 C 0.608 56.601, 0.492 113, 0.492 250.500 M 229.500 51.098 C 169.900 57.295, 115.559 90.543, 82.323 141.146 C 61.954 172.157, 49.944 212.151, 50.021 248.711 C 50.089 281.310, 56.419 309.466, 70 337.583 C 97.199 393.892, 148.277 433.307, 211.219 446.558 C 228.291 450.152, 256.845 451.032, 275.388 448.535 C 339.628 439.884, 393.939 402.828, 425.588 346.055 C 448.150 305.582, 455.425 256.638, 445.886 209.500 C 441.247 186.576, 429.569 158.634, 416.425 139.012 C 388.736 97.675, 347.445 68.362, 299.487 55.997 C 279.730 50.902, 250.832 48.880, 229.500 51.098 M 231.857 110.974 C 224.046 111.962, 207.730 116.094, 200.192 118.994 C 178.915 127.179, 156.459 143.029, 143.273 159.167 C 119.735 187.974, 109.134 218.305, 110.305 253.500 C 112.225 311.254, 148.034 360.966, 202.474 381.455 C 210.986 384.658, 230.495 388.634, 242 389.510 C 263.286 391.131, 292.794 384.753, 314.229 373.900 C 328.364 366.742, 345.417 353.149, 355.849 340.723 C 378.099 314.219, 389.291 283.963, 389.223 250.500 C 389.103 191.881, 354.549 141.316, 299.788 119.625 C 296.096 118.163, 287.321 115.571, 280.288 113.864 C 269.627 111.278, 265.088 110.710, 253 110.448 C 245.025 110.276, 235.511 110.512, 231.857 110.974 M 162.399 220.403 C 162.092 221.201, 161.990 222.900, 162.171 224.177 L 162.500 226.500 179.500 226.500 L 196.500 226.500 196.500 223 L 196.500 219.500 179.728 219.226 C 165.812 218.998, 162.861 219.199, 162.399 220.403 M 238.390 220.427 C 238.088 221.212, 237.990 222.900, 238.171 224.177 L 238.500 226.500 252 227 L 265.500 227.500 265.500 232 L 265.500 236.500 252 237 L 238.500 237.500 238.500 250 L 238.500 262.500 242 262.500 L 245.500 262.500 245.789 253.750 L 246.078 245 256.089 245 C 270.727 245, 274 242.607, 274 231.903 C 274 225.902, 271.820 221.262, 268.387 219.957 C 267.003 219.431, 259.810 219, 252.404 219 C 241.661 219, 238.826 219.289, 238.390 220.427 M 287.200 220.200 C 286.344 221.056, 286 227.356, 286 242.200 L 286 263 289.476 263 L 292.953 263 293.226 245.805 L 293.500 228.611 298.378 241.055 C 304.861 257.594, 305.139 258, 310 258 C 314.861 258, 315.139 257.594, 321.622 241.055 L 326.500 228.611 326.774 245.805 L 327.047 263 330.524 263 L 334 263 334 242.200 C 334 227.356, 333.656 221.056, 332.800 220.200 C 331.129 218.529, 323.509 218.682, 322.071 220.415 C 321.425 221.193, 318.509 227.778, 315.591 235.049 C 312.672 242.321, 310.036 247.867, 309.731 247.374 C 309.427 246.882, 306.846 240.635, 303.997 233.491 C 301.147 226.348, 298.294 220.172, 297.658 219.767 C 295.803 218.587, 288.511 218.889, 287.200 220.200 M 163.339 239.605 C 161.840 241.893, 161.766 243.139, 162.730 249.834 C 163.679 256.420, 164.255 257.839, 166.962 260.258 L 170.096 263.057 183.298 262.779 L 196.500 262.500 196.500 258 L 196.500 253.500 185.061 253.215 C 178.730 253.058, 173.036 252.445, 172.311 251.843 C 171.590 251.245, 171 249.460, 171 247.878 L 171 245 183.500 245 L 196 245 196 241 L 196 237 180.523 237 L 165.046 237 163.339 239.605 M 208 239.500 L 208 242 217.500 242 L 227 242 227 239.500 L 227 237 217.500 237 L 208 237 208 239.500" stroke="none" fill="#f8f8f8" fill-rule="evenodd"/></svg>